# xmcd
# Track frame offsets:
# 150
# 11999
# 27823
# 41967
# 56032
# 71965
# 81966
# 91668
# 104076
# 118099
# 133747
# 149424
# 161864
# 177124
# 194256
#
# Disc length: 2744 seconds
# Revision: 0
# Processed by: cddbd v1.4PL0 Copyright (c) Steve Scherf et al.
# Submitted via: VisiTrax 2.9.5.180 - For more info visit www.synapsa.com
#
DISCID=e20ab60f
DTITLE=Bob Boatright - Keep a light in your window tonight
DYEAR=1999
DGENRE=
TTITLE0=Instrumental - Maggie
TTITLE1=Gerg Hardy - You're the only star
TTITLE2=Craig Chambers - New road under me wheels
TTITLE3=Johnny Boatright - Adobe hacienda
TTITLE4=Bill Adams - A king without a queen
TTITLE5=Rich O'Brian - Goodbye little darling
TTITLE6=Johnny Boatright - Keep a light in our window tonight
TTITLE7=Johnny Boatright - Somewhere south of San Antone
TTITLE8=Instrumental - Old watermill by the waterfall
TTITLE9=Durwood Strube - Storms never last
TTITLE10=Instrumental - Wednesday night waltz
TTITLE11=Leon Rausch - Beneath a neon star in a honky tonk
TTITLE12=Mark Abbott - I saw your face in the moon
TTITLE13=Leon Chambers - Dreams of a dreamer
TTITLE14=Instrumental - Lone star rag
EXTD=
EXTT0=
EXTT1=
EXTT2=
EXTT3=
EXTT4=
EXTT5=
EXTT6=
EXTT7=
EXTT8=
EXTT9=
EXTT10=
EXTT11=
EXTT12=
EXTT13=
EXTT14=
PLAYORDER=
